# xmcd
#
# Track frame offsets: 
#        150
#        15155
#        30387
#        47545
#        61015
#        77825
#        97987
#        119072
#        135535
#        147685
#
# Disc length: 2156 seconds
#
# Revision: 0
# Processed by: cddbd v1.5.2PL0 Copyright (c) Steve Scherf et al.
# Submitted via: ExactAudioCopy v1.0b3
#
DISCID=7a086a0a
DTITLE=The Cazanovas - Borrowed Time
DYEAR=2006
DGENRE=Blues
TTITLE0=Borrowed Time
TTITLE1=Long Time
TTITLE2=Nervous Condition
TTITLE3=Give It All Back
TTITLE4=The Shuffler
TTITLE5=Cryin Time
TTITLE6=No Fool Like An Old Fool
TTITLE7=Too Bad So Sad
TTITLE8=Bye Bye Baby
TTITLE9=Supernova
EXTD=
EXTT0=
EXTT1=
EXTT2=
EXTT3=
EXTT4=
EXTT5=
EXTT6=
EXTT7=
EXTT8=
EXTT9=
PLAYORDER=
